<?xml version="1.0" encoding="UTF-8"?>
<svg version="1.1" xmlns="http://www.w3.org/2000/svg" width="512" height="512">
<path d="M0 0 C3.61913146 0.00479419 7.23821298 -0.00783263 10.85732758 -0.01801741 C17.92208735 -0.03509133 24.98675775 -0.0360692 32.05153277 -0.03080451 C37.80317047 -0.02673938 43.55478205 -0.02823394 49.30641854 -0.03355277 C50.12952325 -0.03430119 50.95262797 -0.03504961 51.80067525 -0.03582071 C53.47360855 -0.03735242 55.14654186 -0.03889077 56.81947515 -0.04043568 C72.45953262 -0.05411998 88.09953988 -0.04875225 103.73959617 -0.03725047 C117.99384857 -0.0273269 132.247971 -0.04025087 146.50220337 -0.06418466 C161.19761547 -0.08867006 175.89296729 -0.09816019 190.58839935 -0.09153193 C198.81500974 -0.08806 207.04152039 -0.09013611 215.26811516 -0.10778296 C222.27257723 -0.12262393 229.27686931 -0.12298756 236.28132846 -0.10571205 C239.84293374 -0.0972953 243.40423699 -0.09481796 246.9658252 -0.1103636 C284.66258048 -0.26286851 320.1485187 5.85266603 348.40867341 32.53183305 C374.7917913 59.86535145 379.27171831 97.35180548 379.19050646 133.62315965 C379.18571226 137.2422911 379.19833909 140.86137262 379.20852387 144.48048723 C379.22559779 151.545247 379.22657565 158.60991739 379.22131097 165.67469241 C379.21724584 171.42633012 379.2187404 177.1779417 379.22405922 182.92957819 C379.22480765 183.7526829 379.22555607 184.57578761 379.22632717 185.42383489 C379.22785888 187.0967682 379.22939723 188.7697015 379.23094214 190.4426348 C379.24462643 206.08269227 379.2392587 221.72269953 379.22775692 237.36275581 C379.21783336 251.61700822 379.23075733 265.87113065 379.25469112 280.12536301 C379.27917652 294.82077512 379.28866664 309.51612693 379.28203839 324.211559 C379.27856645 332.43816939 379.28064257 340.66468003 379.29828942 348.89127481 C379.31313039 355.89573687 379.31349402 362.90002896 379.29621851 369.90448811 C379.28780176 373.46609339 379.28532442 377.02739664 379.30087006 380.58898485 C379.45337497 418.28574013 373.33784043 453.77167835 346.65867341 482.03183305 C319.32515501 508.41495095 281.83870098 512.89487795 245.56734681 512.81366611 C241.94821535 512.80887191 238.32913383 512.82149874 234.71001923 512.83168352 C227.64525946 512.84875743 220.58058907 512.8497353 213.51581404 512.84447061 C207.76417634 512.84040549 202.01256476 512.84190004 196.26092827 512.84721887 C195.43782356 512.84796729 194.61471885 512.84871572 193.76667156 512.84948682 C192.09373826 512.85101853 190.42080496 512.85255688 188.74787166 512.85410178 C173.10781419 512.86778608 157.46780693 512.86241835 141.82775065 512.85091657 C127.57349824 512.840993 113.31937581 512.85391698 99.06514344 512.87785076 C84.36973134 512.90233616 69.67437952 512.91182629 54.97894746 512.90519804 C46.75233707 512.9017261 38.52582643 512.90380221 30.29923165 512.92144907 C23.29476958 512.93629004 16.2904775 512.93665367 9.28601835 512.91937815 C5.72441307 512.9109614 2.16310982 512.90848406 -1.39847839 512.92402971 C-39.09523367 513.07653462 -74.58117189 506.96100008 -102.84132659 480.28183305 C-129.22444449 452.94831466 -133.70437149 415.46186063 -133.62315965 379.19050646 C-133.61836545 375.571375 -133.63099228 371.95229348 -133.64117706 368.33317888 C-133.65825097 361.2684191 -133.65922884 354.20374871 -133.65396415 347.13897369 C-133.64989903 341.38733599 -133.65139359 335.63572441 -133.65671241 329.88408792 C-133.65746083 329.06098321 -133.65820926 328.23787849 -133.65898036 327.38983121 C-133.66051207 325.7168979 -133.66205042 324.0439646 -133.66359533 322.37103131 C-133.67727962 306.73097384 -133.67191189 291.09096658 -133.66041011 275.45091029 C-133.65048654 261.19665789 -133.66341052 246.94253546 -133.68734431 232.68830309 C-133.71182971 217.99289099 -133.72131983 203.29753917 -133.71469158 188.60210711 C-133.71121964 180.37549671 -133.71329575 172.14898607 -133.73094261 163.9223913 C-133.74578358 156.91792923 -133.74614721 149.91363715 -133.7288717 142.909178 C-133.72045495 139.34757271 -133.7179776 135.78626947 -133.73352325 132.22468126 C-133.88602816 94.52792598 -127.77049362 59.04198776 -101.09132659 30.78183305 C-73.7578082 4.39871516 -36.27135417 -0.08121185 0 0 Z " fill="#84089D" transform="translate(133.21632659435272,-0.40683305263519287)"/>
<path d="M0 0 C2.54318861 -0.01739733 5.08634115 -0.04158789 7.62939453 -0.07305908 C27.12545777 -0.30150851 46.33257371 0.21317368 64.04638672 9.28610229 C65.03767578 9.77723511 66.02896484 10.26836792 67.05029297 10.77438354 C81.90365917 18.7227366 91.24190759 30.58755855 96.28466797 46.52438354 C101.58078578 65.72620556 99.32702678 88.61536933 89.99169922 106.09469604 C85.30870864 113.7774336 79.2438829 119.2199094 72.14794922 124.65719604 C69.98715598 126.26153526 69.98715598 126.26153526 68.04638672 128.28610229 C68.44317627 129.07444458 68.83996582 129.86278687 69.2487793 130.67501831 C91.25902159 174.44462868 91.25902159 174.44462868 98.23388672 190.78610229 C98.52585937 191.45037231 98.81783203 192.11464233 99.11865234 192.79904175 C100.89538467 197.09410384 101.48771799 200.6549897 101.04638672 205.28610229 C97.64606709 208.68642192 93.43447301 208.41162172 88.81640625 208.43136597 C87.79829865 208.43774582 86.78019104 208.44412567 85.73123169 208.45069885 C84.09672562 208.45236809 84.09672562 208.45236809 82.42919922 208.45407104 C80.73342239 208.45906364 80.73342239 208.45906364 79.00338745 208.4641571 C76.61456712 208.46921419 74.22573974 208.47156581 71.83691406 208.47140503 C68.19177553 208.47359007 64.54694043 208.49175506 60.90185547 208.51071167 C58.57763775 208.51364616 56.2534186 208.51563058 53.92919922 208.51657104 C52.84357697 208.52375656 51.75795471 208.53094208 50.63943481 208.53834534 C37.25844245 208.49815803 37.25844245 208.49815803 33.24682617 204.48654175 C31.92311804 202.06014732 30.84407265 199.65532142 29.83935547 197.07907104 C29.42403564 196.0316272 29.00871582 194.98418335 28.58081055 193.90499878 C27.91408325 192.20645752 27.91408325 192.20645752 27.23388672 190.47360229 C22.33546104 178.18486595 17.00371855 166.13047889 11.46704102 154.11691284 C11.1723996 153.47441589 10.87775818 152.83191895 10.57418823 152.16995239 C9.77191357 150.42183904 8.96461274 148.6760349 8.15698242 146.9303894 C7.04638672 144.28610229 7.04638672 144.28610229 7.04638672 142.28610229 C5.35930449 142.11525853 3.67169108 141.94965803 1.98388672 141.78610229 C1.04416016 141.69328979 0.10443359 141.60047729 -0.86376953 141.50485229 C-4.23609434 141.26610364 -7.57395662 141.25234792 -10.95361328 141.28610229 C-10.89826416 141.9753479 -10.84291504 142.66459351 -10.78588867 143.37472534 C-10.70846436 144.33934692 -10.63104004 145.30396851 -10.55126953 146.29782104 C-10.46603027 147.35863892 -10.38079102 148.41945679 -10.29296875 149.51242065 C-10.10700129 151.83734187 -9.92245175 154.16237691 -9.73925781 156.48751831 C-9.6488623 157.63276978 -9.5584668 158.77802124 -9.46533203 159.95797729 C-9.3824292 161.01339722 -9.29952637 162.06881714 -9.21411133 163.15621948 C-9.03825585 165.26912228 -8.84395077 167.38055914 -8.63256836 169.49020386 C-7.89729822 177.31182453 -7.81790391 185.12309374 -7.76611328 192.97360229 C-7.75306152 194.1465686 -7.74000977 195.31953491 -7.7265625 196.52804565 C-7.72487061 198.17752197 -7.72487061 198.17752197 -7.72314453 199.86032104 C-7.71903564 200.85636353 -7.71492676 201.85240601 -7.71069336 202.87863159 C-7.95361328 205.28610229 -7.95361328 205.28610229 -9.95361328 207.28610229 C-13.53727015 208.59693968 -17.14706227 208.40632668 -20.92529297 208.39962769 C-21.61838058 208.39977371 -22.3114682 208.39991974 -23.02555847 208.40007019 C-25.30890061 208.39937536 -27.59216045 208.39160314 -29.87548828 208.38375854 C-31.46160843 208.38189284 -33.04772916 208.38046965 -34.6338501 208.37947083 C-38.80297443 208.37565768 -42.97206378 208.36583766 -47.14117432 208.35476685 C-51.39765957 208.34452687 -55.6541505 208.33996766 -59.91064453 208.33493042 C-68.25831681 208.32421431 -76.60596069 208.30715233 -84.95361328 208.28610229 C-87.21423803 199.86799286 -87.21423803 199.86799286 -87.11376953 195.27047729 C-87.09733398 193.98270386 -87.09733398 193.98270386 -87.08056641 192.66891479 C-87.05929688 191.80008667 -87.03802734 190.93125854 -87.01611328 190.03610229 C-86.98157367 188.28097831 -86.95145864 186.52576037 -86.92626953 184.77047729 C-86.90830322 184.0044519 -86.89033691 183.23842651 -86.87182617 182.44918823 C-86.95689589 180.19928472 -87.14337109 178.39175127 -87.95361328 176.28610229 C-91.15488454 175.21901188 -93.52718951 175.12937027 -96.89379883 175.08078003 C-98.1148381 175.06083481 -99.33587738 175.04088959 -100.59391785 175.02033997 C-101.91273453 175.00362747 -103.23155121 174.98691498 -104.59033203 174.96969604 C-105.95368572 174.9491197 -107.31703313 174.92812304 -108.68037415 174.90672302 C-112.2658275 174.8515726 -115.85133776 174.80213242 -119.43688965 174.75387573 C-123.09681248 174.70360931 -126.75665285 174.6479501 -130.41650391 174.59274292 C-137.59547049 174.48524736 -144.77450573 174.3837834 -151.95361328 174.28610229 C-151.95361328 174.94610229 -151.95361328 175.60610229 -151.95361328 176.28610229 C-152.61361328 176.28610229 -153.27361328 176.28610229 -153.95361328 176.28610229 C-154.22173828 176.96672729 -154.48986328 177.64735229 -154.76611328 178.34860229 C-156.11414634 181.68321039 -157.52897626 184.98353466 -158.95361328 188.28610229 C-159.61361328 188.28610229 -160.27361328 188.28610229 -160.95361328 188.28610229 C-161.06447266 189.01442261 -161.17533203 189.74274292 -161.28955078 190.49313354 C-161.99014868 193.4397659 -162.96002481 195.42454184 -164.57861328 197.97360229 C-165.04525391 198.74059448 -165.51189453 199.50758667 -165.99267578 200.29782104 C-170.16757017 204.53093109 -176.18111551 204.51944607 -181.8182373 204.56399536 C-182.65697388 204.5599469 -183.49571045 204.55589844 -184.35986328 204.55172729 C-185.24339478 204.55364075 -186.12692627 204.5555542 -187.03723145 204.55752563 C-188.89624315 204.5588803 -190.75526455 204.55523431 -192.61425781 204.54684448 C-195.44504224 204.53613472 -198.27519213 204.54676425 -201.10595703 204.55953979 C-202.9197605 204.55821807 -204.73356358 204.55565542 -206.54736328 204.55172729 C-207.38609985 204.55577576 -208.22483643 204.55982422 -209.08898926 204.56399536 C-214.08590814 204.5245055 -218.21380391 203.88670191 -222.95361328 202.28610229 C-222.95361328 200.96610229 -222.95361328 199.64610229 -222.95361328 198.28610229 C-222.29361328 198.28610229 -221.63361328 198.28610229 -220.95361328 198.28610229 C-220.62361328 196.63610229 -220.29361328 194.98610229 -219.95361328 193.28610229 C-219.29361328 193.28610229 -218.63361328 193.28610229 -217.95361328 193.28610229 C-217.55142578 192.21295776 -217.55142578 192.21295776 -217.14111328 191.11813354 C-215.93630021 188.2448129 -214.54124216 185.65272603 -212.95361328 182.97360229 C-212.43798828 182.09059448 -211.92236328 181.20758667 -211.39111328 180.29782104 C-210.91673828 179.63395386 -210.44236328 178.97008667 -209.95361328 178.28610229 C-209.29361328 178.28610229 -208.63361328 178.28610229 -207.95361328 178.28610229 C-207.56689453 177.20715698 -207.56689453 177.20715698 -207.17236328 176.10641479 C-205.88966711 173.13812429 -204.34357926 170.77982634 -202.45361328 168.16110229 C-201.54095703 166.88879761 -201.54095703 166.88879761 -200.60986328 165.59078979 C-200.06330078 164.83024292 -199.51673828 164.06969604 -198.95361328 163.28610229 C-198.29361328 162.29610229 -197.63361328 161.30610229 -196.95361328 160.28610229 C-196.29361328 160.28610229 -195.63361328 160.28610229 -194.95361328 160.28610229 C-194.69580078 159.58098511 -194.43798828 158.87586792 -194.17236328 158.14938354 C-192.85031142 155.04340914 -191.25613474 152.32632164 -189.45361328 149.47360229 C-188.84517578 148.49778198 -188.23673828 147.52196167 -187.60986328 146.51657104 C-187.06330078 145.78051636 -186.51673828 145.04446167 -185.95361328 144.28610229 C-185.29361328 144.28610229 -184.63361328 144.28610229 -183.95361328 144.28610229 C-183.69322266 143.56422729 -183.43283203 142.84235229 -183.16455078 142.09860229 C-181.91014738 139.18514923 -180.42221138 136.86230925 -178.57861328 134.28610229 C-177.99337891 133.46110229 -177.40814453 132.63610229 -176.80517578 131.78610229 C-175.56590312 130.11282275 -174.28074831 128.47261906 -172.95361328 126.86813354 C-170.01949845 123.08014545 -167.85223604 118.92138236 -165.53955078 114.73532104 C-165.01619141 113.92707886 -164.49283203 113.11883667 -163.95361328 112.28610229 C-163.29361328 112.28610229 -162.63361328 112.28610229 -161.95361328 112.28610229 C-161.71642578 111.58614136 -161.47923828 110.88618042 -161.23486328 110.16500854 C-159.71936773 106.75976397 -157.74226487 104.162439 -155.45361328 101.22360229 C-151.77909982 96.51548226 -151.77909982 96.51548226 -148.95361328 91.28610229 C-148.29361328 91.28610229 -147.63361328 91.28610229 -146.95361328 91.28610229 C-146.58236328 90.23422729 -146.58236328 90.23422729 -146.20361328 89.16110229 C-144.7818109 85.89095682 -143.0811504 83.1449803 -140.95361328 80.28610229 C-140.29361328 80.28610229 -139.63361328 80.28610229 -138.95361328 80.28610229 C-138.70482422 79.57325073 -138.45603516 78.86039917 -138.19970703 78.12594604 C-136.81417825 74.96833029 -135.11431957 72.58423834 -133.01611328 69.84860229 C-132.62206299 69.33346069 -132.2280127 68.81831909 -131.82202148 68.28756714 C-130.5387987 66.61549655 -129.24646616 64.95073412 -127.95361328 63.28610229 C-127.52338867 62.7268103 -127.09316406 62.16751831 -126.64990234 61.59127808 C-121.06381245 54.32936122 -115.30155013 47.25600483 -109.29858398 40.33444214 C-106.22951721 36.79371036 -103.25387093 33.19782446 -100.32861328 29.53610229 C-96.49045279 24.79112367 -92.31279025 20.51678995 -87.92236328 16.28219604 C-85.90088435 14.43870923 -85.90088435 14.43870923 -84.95361328 12.28610229 C-84.29361328 12.28610229 -83.63361328 12.28610229 -82.95361328 12.28610229 C-82.61330078 11.41985229 -82.61330078 11.41985229 -82.26611328 10.53610229 C-79.94488112 6.55684717 -77.03982123 4.690768 -72.76611328 3.09860229 C-49.57514418 -1.84373538 -23.58535992 0.13757633 0 0 Z " fill="#FEFEFE" transform="translate(305.95361328125,144.71389770507813)"/>
<path d="M0 0 C5.47784511 4.60636975 7.94255321 9.20705088 8.875 16.25 C9.2396855 21.94530126 8.54788063 26.85774457 6 32 C1.41349219 37.01315969 -4.1935125 39.66752378 -10.92651367 40.25561523 C-14.20608727 40.33032823 -17.47021178 40.31109035 -20.75 40.25 C-22.43416016 40.24226563 -22.43416016 40.24226563 -24.15234375 40.234375 C-32.67934208 40.15287442 -32.67934208 40.15287442 -37 39 C-37.02473355 33.51904631 -37.04287596 28.03812517 -37.05493164 22.55712891 C-37.05995792 20.69286534 -37.06677992 18.8286057 -37.07543945 16.96435547 C-37.08757963 14.28351876 -37.09324539 11.6027342 -37.09765625 8.921875 C-37.10281754 8.08944275 -37.10797882 7.2570105 -37.11329651 6.39935303 C-37.11340981 5.22859222 -37.11340981 5.22859222 -37.11352539 4.03417969 C-37.115746 3.35023132 -37.11796661 2.66628296 -37.12025452 1.96160889 C-36.99213985 -0.12821596 -36.56725751 -1.98847744 -36 -4 C-24.54451421 -6.59879442 -10.4083309 -5.73520274 0 0 Z " fill="#6D0C91" transform="translate(331,200)"/>
<path d="M0 0 C0.33 0 0.66 0 1 0 C1.37975319 26.76675769 1.37975319 26.76675769 0.125 39.875 C0.04652832 40.71635498 -0.03194336 41.55770996 -0.11279297 42.42456055 C-0.58362953 46.82972914 -1.20852899 50.90341943 -3 55 C-7.42960637 57.95307092 -11.50378104 58.12046239 -16.73828125 58.31640625 C-17.80498047 58.35830078 -18.87167969 58.40019531 -19.97070312 58.44335938 C-21.07349609 58.48267578 -22.17628906 58.52199219 -23.3125 58.5625 C-24.43462891 58.60568359 -25.55675781 58.64886719 -26.71289062 58.69335938 C-29.47514569 58.79914787 -32.2374863 58.90123672 -35 59 C-35.99355203 55.87488087 -36.0787723 55.19553766 -34.78515625 51.984375 C-34.21667969 50.91703125 -33.64820313 49.8496875 -33.0625 48.75 C-32.49660156 47.67234375 -31.93070313 46.5946875 -31.34765625 45.484375 C-30.90292969 44.66453125 -30.45820313 43.8446875 -30 43 C-29.34 43 -28.68 43 -28 43 C-27.7525 42.154375 -27.505 41.30875 -27.25 40.4375 C-25.86026373 36.61572526 -24.08879162 33.48131937 -22 30 C-21.34 30 -20.68 30 -20 30 C-19.34 28.35 -18.68 26.7 -18 25 C-17.34 25 -16.68 25 -16 25 C-15.566875 23.88625 -15.566875 23.88625 -15.125 22.75 C-14.17697356 20.43260203 -13.15154089 18.22082885 -12 16 C-11.34 16 -10.68 16 -10 16 C-9.75378906 15.29488281 -9.50757813 14.58976563 -9.25390625 13.86328125 C-7.83218129 10.6167878 -6.03985789 8.03770207 -3.9375 5.1875 C-3.22464844 4.21167969 -2.51179688 3.23585937 -1.77734375 2.23046875 C-1.19082031 1.49441406 -0.60429687 0.75835937 0 0 Z " fill="#890A9F" transform="translate(219,212)"/>
</svg>
